<svg id="icon-phone" width="16" height="17" viewBox="0 0 16 17" fill="none" xmlns="http://www.w3.org/2000/svg">
<path d="M3.65447 1.82781C3.59544 1.75187 3.52092 1.68936 3.43587 1.64443C3.35082 1.5995 3.25719 1.57319 3.16119 1.56723C3.06519 1.56127 2.96902 1.57581 2.87907 1.60987C2.78912 1.64394 2.70744 1.69675 2.63947 1.76481L1.60547 2.79981C1.12247 3.28381 0.944471 3.96881 1.15547 4.56981C2.03121 7.05739 3.45577 9.3159 5.32347 11.1778C7.1854 13.0455 9.4439 14.47 11.9315 15.3458C12.5325 15.5568 13.2175 15.3788 13.7015 14.8958L14.7355 13.8618C14.8035 13.7938 14.8563 13.7122 14.8904 13.6222C14.9245 13.5323 14.939 13.4361 14.933 13.3401C14.9271 13.2441 14.9008 13.1505 14.8558 13.0654C14.8109 12.9804 14.7484 12.9058 14.6725 12.8468L12.3655 11.0528C12.2843 10.9899 12.19 10.9462 12.0895 10.9251C11.989 10.9039 11.8851 10.9059 11.7855 10.9308L9.59547 11.4778C9.30315 11.5509 8.99689 11.547 8.70652 11.4666C8.41614 11.3861 8.15154 11.2319 7.93847 11.0188L5.48247 8.56181C5.26924 8.34884 5.1148 8.08429 5.03418 7.79391C4.95357 7.50352 4.94954 7.19721 5.02247 6.90481L5.57047 4.71481C5.59538 4.6152 5.59734 4.51124 5.57621 4.41077C5.55507 4.3103 5.51139 4.21594 5.44847 4.13481L3.65447 1.82781ZM1.88447 1.01081C2.05947 0.835756 2.2697 0.699937 2.50121 0.612368C2.73272 0.524799 2.98021 0.487483 3.22725 0.5029C3.47429 0.518316 3.71522 0.586111 3.93405 0.701783C4.15288 0.817456 4.3446 0.978358 4.49647 1.17381L6.29047 3.47981C6.61947 3.90281 6.73547 4.45381 6.60547 4.97381L6.05847 7.16381C6.03019 7.27724 6.03172 7.39605 6.06291 7.50872C6.0941 7.62138 6.15388 7.72407 6.23647 7.80681L8.69347 10.2638C8.77631 10.3466 8.87916 10.4064 8.99202 10.4376C9.10488 10.4688 9.22389 10.4703 9.33747 10.4418L11.5265 9.89481C11.7831 9.83065 12.0509 9.82566 12.3098 9.88023C12.5686 9.9348 12.8116 10.0475 13.0205 10.2098L15.3265 12.0038C16.1555 12.6488 16.2315 13.8738 15.4895 14.6148L14.4555 15.6488C13.7155 16.3888 12.6095 16.7138 11.5785 16.3508C8.93965 15.4223 6.54374 13.9116 4.56847 11.9308C2.58776 9.95582 1.07708 7.56027 0.148471 4.92181C-0.213529 3.89181 0.111471 2.78481 0.851471 2.04481L1.88547 1.01081H1.88447Z" fill="currentColor"/>
</svg>
