<svg id="icon-address" width="12" height="16" viewBox="0 0 12 16" fill="none" xmlns="http://www.w3.org/2000/svg">
<path d="M10.166 8.94C9.64203 10.002 8.93203 11.06 8.20603 12.01C7.51733 12.9056 6.78093 13.7635 6.00003 14.58C5.21911 13.7635 4.48271 12.9056 3.79403 12.01C3.06803 11.06 2.35803 10.002 1.83403 8.94C1.30403 7.867 1.00003 6.862 1.00003 6C1.00003 4.67392 1.52681 3.40215 2.4645 2.46447C3.40218 1.52678 4.67395 1 6.00003 1C7.32611 1 8.59788 1.52678 9.53556 2.46447C10.4732 3.40215 11 4.67392 11 6C11 6.862 10.695 7.867 10.166 8.94ZM6.00003 16C6.00003 16 12 10.314 12 6C12 4.4087 11.3679 2.88258 10.2427 1.75736C9.11745 0.632141 7.59133 0 6.00003 0C4.40873 0 2.88261 0.632141 1.75739 1.75736C0.632172 2.88258 3.05413e-05 4.4087 3.05176e-05 6C3.05176e-05 10.314 6.00003 16 6.00003 16Z" fill="currentColor"/>
<path d="M6.00003 8C5.4696 8 4.96089 7.78929 4.58582 7.41421C4.21074 7.03914 4.00003 6.53043 4.00003 6C4.00003 5.46957 4.21074 4.96086 4.58582 4.58579C4.96089 4.21071 5.4696 4 6.00003 4C6.53046 4 7.03917 4.21071 7.41424 4.58579C7.78932 4.96086 8.00003 5.46957 8.00003 6C8.00003 6.53043 7.78932 7.03914 7.41424 7.41421C7.03917 7.78929 6.53046 8 6.00003 8ZM6.00003 9C6.79568 9 7.55874 8.68393 8.12135 8.12132C8.68396 7.55871 9.00003 6.79565 9.00003 6C9.00003 5.20435 8.68396 4.44129 8.12135 3.87868C7.55874 3.31607 6.79568 3 6.00003 3C5.20438 3 4.44132 3.31607 3.87871 3.87868C3.3161 4.44129 3.00003 5.20435 3.00003 6C3.00003 6.79565 3.3161 7.55871 3.87871 8.12132C4.44132 8.68393 5.20438 9 6.00003 9Z" fill="currentColor"/>
</svg>
