<svg id="icon-ok" width="12" height="19" viewBox="0 0 12 19" fill="none" xmlns="http://www.w3.org/2000/svg">
<path d="M5.99969 3C7.10906 3 8.01141 3.90234 8.01141 5.01172C8.01141 6.11719 7.10906 7.01953 5.99969 7.01953C4.89031 7.01953 3.98797 6.11719 3.98797 5.01172C3.98797 3.90234 4.89031 3 5.99969 3ZM5.99969 10.0078C8.7575 10.0078 10.9958 7.76953 10.9958 5.01172C10.9958 2.25391 8.7575 0.0117188 5.99969 0.0117188C3.24188 0.0117188 0.999688 2.25391 0.999688 5.01172C0.999688 7.76562 3.24188 10.0078 5.99969 10.0078ZM7.96453 13.8281C8.95281 13.6055 9.90594 13.2148 10.7848 12.6602C11.4489 12.2422 11.6481 11.3633 11.2302 10.6992C10.8122 10.0352 9.93328 9.83203 9.26922 10.2539C7.27703 11.5039 4.71844 11.5039 2.73016 10.2539C2.06219 9.83203 1.18328 10.0352 0.765313 10.6992C0.347344 11.3633 0.546563 12.2422 1.21453 12.6602C2.08953 13.2148 3.04656 13.6055 4.03484 13.8281L1.31609 16.5469C0.761406 17.1016 0.761407 18.0039 1.32 18.5586C1.59734 18.8359 1.96063 18.9766 2.32391 18.9766C2.68719 18.9766 3.05438 18.8359 3.33172 18.5586L5.99969 15.8906L8.67156 18.5586C9.22625 19.1133 10.1247 19.1133 10.6833 18.5586C11.238 18.0039 11.238 17.1016 10.6833 16.5469L7.96453 13.8281Z" fill="currentColor"/>
</svg>
