<svg id="elem-sports-complex" width="40" height="40" viewBox="0 0 90 90" fill="none" xmlns="http://www.w3.org/2000/svg">
<circle cx="45" cy="45.0024" r="40" fill="#FF3030"/>
<circle cx="45" cy="45.0024" r="44" stroke="#FF3030" stroke-linecap="round" stroke-dasharray="2 4"/>
<path d="M25.2222 58.26C25.2399 58.3225 25.2587 58.385 25.2908 58.4394C25.3052 58.4637 25.3262 58.4822 25.3439 58.5053C25.3837 58.5574 25.4246 58.606 25.4755 58.6453C25.4843 58.6523 25.4888 58.6627 25.4976 58.6696L27.0525 59.7724C28.1916 60.5801 29.5099 61.0024 30.8823 61.0024C30.9653 61.0024 31.0493 61.0013 31.1334 60.9978L38.1372 60.6842C38.9666 60.6541 39.754 60.3602 40.4132 59.836L62.5935 42.2058C63.4639 41.5115 63.6452 40.1993 62.9972 39.277L59.2968 34.0109L55.7269 28.9298C55.2801 28.2946 54.5601 27.9509 53.8147 28.0087C53.0638 28.0678 52.4091 28.519 52.0585 29.2156C51.3972 30.5313 50.5854 32.1652 50.0679 33.268C49.2683 34.9736 46.3343 36.4443 43.8858 35.7003C40.8843 34.7942 39.3946 35.9711 39.2343 36.1099C39.1568 36.177 39.0938 36.2592 39.0485 36.3529L32.7591 49.3812L27.0957 53.1211C25.6126 53.8941 24.7721 55.6275 25.0541 57.3354L25.1913 58.1744C25.1913 58.1767 25.1935 58.179 25.1935 58.1813C25.2001 58.2079 25.2145 58.2322 25.2222 58.26ZM61.7221 41.007L39.5417 58.6372C39.1203 58.9728 38.6171 59.1614 38.0819 59.1811L31.077 59.4947C29.9412 59.5317 28.885 59.2158 27.9527 58.5828L37.029 57.612C37.9337 57.5264 38.7808 57.1572 39.4787 56.5463L60.093 38.415C60.2036 38.3178 60.2987 38.209 60.3839 38.0933L61.8393 40.1657C62.0251 40.4295 61.9731 40.8079 61.7221 41.007ZM27.8001 54.4299L33.6947 50.5407C33.8053 50.4689 33.8949 50.366 33.9524 50.2433L36.1266 45.7385L42.6051 44.1324C42.9911 44.0364 43.2288 43.6302 43.1382 43.2264C43.0464 42.8214 42.6604 42.576 42.2722 42.6686L36.9749 43.982L37.9348 41.9928L43.9101 40.5915C44.2972 40.5013 44.5405 40.0986 44.4531 39.6936C44.3668 39.2874 43.9775 39.0387 43.5949 39.1254L38.7742 40.256L40.244 37.2115C40.5658 37.0241 41.6009 36.5809 43.4854 37.1467C46.4095 38.0319 50.1563 36.4964 51.3585 33.9322C51.8694 32.841 52.6745 31.2198 53.3292 29.9169C53.4487 29.6785 53.6654 29.5304 53.9209 29.5096C54.1741 29.4957 54.4141 29.6033 54.5678 29.822L59.2547 36.4941C59.4239 36.7336 59.3841 37.0738 59.1663 37.2659L38.5519 55.3961C38.0808 55.8092 37.509 56.058 36.8886 56.117L26.494 57.229L26.4708 57.082C26.2972 56.0198 26.8181 54.9459 27.8001 54.4299ZM64.2812 59.6289H49.4662C49.0692 59.6289 48.7474 59.2922 48.7474 58.8768C48.7474 58.4614 49.0692 58.1246 49.4662 58.1246H64.2812C64.6782 58.1246 65 58.4614 65 58.8768C65 59.2922 64.6782 59.6289 64.2812 59.6289ZM65 54.1764C65 54.5919 64.6782 54.9286 64.2812 54.9286H55.0744C54.6773 54.9286 54.3555 54.5919 54.3555 54.1764C54.3555 53.761 54.6773 53.4243 55.0744 53.4243H64.2812C64.6782 53.4243 65 53.761 65 54.1764ZM65 49.4773C65 49.8927 64.6782 50.2294 64.2812 50.2294H60.3043C59.9072 50.2294 59.5854 49.8927 59.5854 49.4773C59.5854 49.0619 59.9072 48.7251 60.3043 48.7251H64.2812C64.6782 48.724 65 49.0607 65 49.4773Z" fill="white"/>
</svg>
