<svg id="elem-hospital" width="40" height="40" viewBox="0 0 90 90" fill="none" xmlns="http://www.w3.org/2000/svg">
<circle cx="45" cy="45.0024" r="40" fill="#FF3030"/>
<circle cx="45" cy="45.0024" r="44" stroke="#FF3030" stroke-linecap="round" stroke-dasharray="2 4"/>
<path d="M41.4305 57.3593H38.6247C38.237 57.3593 37.9227 57.6736 37.9227 58.0613V61.2786C37.9227 61.6664 38.237 61.9806 38.6247 61.9806H41.4305C41.8182 61.9806 42.1325 61.6664 42.1325 61.2786V58.0613C42.1325 57.6736 41.8182 57.3593 41.4305 57.3593ZM40.7285 60.5756H39.3267V58.7633H40.7285V60.5756ZM49.3653 57.3593H46.5594C46.1717 57.3593 45.8574 57.6736 45.8574 58.0613V61.2786C45.8574 61.6664 46.1717 61.9806 46.5594 61.9806H49.3653C49.753 61.9806 50.0673 61.6664 50.0673 61.2786V58.0613C50.0673 57.6736 49.753 57.3593 49.3653 57.3593ZM48.6633 60.5756H47.2614V58.7633H48.6633V60.5756ZM31.0053 57.3593H28.1994C27.8117 57.3593 27.4974 57.6736 27.4974 58.0613V61.2786C27.4974 61.6664 27.8117 61.9806 28.1994 61.9806H31.0053C31.393 61.9806 31.7073 61.6664 31.7073 61.2786V58.0613C31.7073 57.6736 31.393 57.3593 31.0053 57.3593ZM30.3033 60.5756H28.9014V58.7633H30.3033V60.5756ZM31.0053 50.8793H28.1994C27.8117 50.8793 27.4974 51.1936 27.4974 51.5813V54.7986C27.4974 55.1864 27.8117 55.5006 28.1994 55.5006H31.0053C31.393 55.5006 31.7073 55.1864 31.7073 54.7986V51.5813C31.7073 51.1936 31.393 50.8793 31.0053 50.8793ZM30.3033 54.0956H28.9014V52.2833H30.3033V54.0956ZM57.3 57.3593H54.4942C54.1065 57.3593 53.7922 57.6736 53.7922 58.0613V61.2786C53.7922 61.6664 54.1065 61.9806 54.4942 61.9806H57.3C57.6878 61.9806 58.002 61.6664 58.002 61.2786V58.0613C58.002 57.6736 57.6878 57.3593 57.3 57.3593ZM56.598 60.5756H55.1962V58.7633H56.598V60.5756ZM41.4305 50.8793H38.6247C38.237 50.8793 37.9227 51.1936 37.9227 51.5813V54.7986C37.9227 55.1864 38.237 55.5006 38.6247 55.5006H41.4305C41.8182 55.5006 42.1325 55.1864 42.1325 54.7986V51.5813C42.1325 51.1936 41.8182 50.8793 41.4305 50.8793ZM40.7285 54.0956H39.3267V52.2833H40.7285V54.0956ZM49.3653 50.8793H46.5594C46.1717 50.8793 45.8574 51.1936 45.8574 51.5813V54.7986C45.8574 55.1864 46.1717 55.5006 46.5594 55.5006H49.3653C49.753 55.5006 50.0673 55.1864 50.0673 54.7986V51.5813C50.0673 51.1936 49.753 50.8793 49.3653 50.8793ZM48.6633 54.0956H47.2614V52.2833H48.6633V54.0956ZM57.3 50.8793H54.4942C54.1065 50.8793 53.7922 51.1936 53.7922 51.5813V54.7986C53.7922 55.1864 54.1065 55.5006 54.4942 55.5006H57.3C57.6878 55.5006 58.002 55.1864 58.002 54.7986V51.5813C58.002 51.1936 57.6878 50.8793 57.3 50.8793ZM56.598 54.0956H55.1962V52.2833H56.598V54.0956ZM41.4305 44.3993H38.6247C38.237 44.3993 37.9227 44.7136 37.9227 45.1013V48.3186C37.9227 48.7064 38.237 49.0206 38.6247 49.0206H41.4305C41.8182 49.0206 42.1325 48.7064 42.1325 48.3186V45.1013C42.1325 44.7136 41.8182 44.3993 41.4305 44.3993ZM40.7285 47.6156H39.3267V45.8033H40.7285V47.6156ZM49.3653 44.3993H46.5594C46.1717 44.3993 45.8574 44.7136 45.8574 45.1013V48.3186C45.8574 48.7064 46.1717 49.0206 46.5594 49.0206H49.3653C49.753 49.0206 50.0673 48.7064 50.0673 48.3186V45.1013C50.0673 44.7136 49.753 44.3993 49.3653 44.3993ZM48.6633 47.6156H47.2614V45.8033H48.6633V47.6156ZM57.3 44.3993H54.4942C54.1065 44.3993 53.7922 44.7136 53.7922 45.1013V48.3186C53.7922 48.7064 54.1065 49.0206 54.4942 49.0206H57.3C57.6878 49.0206 58.002 48.7064 58.002 48.3186V45.1013C58.002 44.7136 57.6878 44.3993 57.3 44.3993ZM56.598 47.6156H55.1962V45.8033H56.598V47.6156ZM41.4305 37.9193H38.6247C38.237 37.9193 37.9227 38.2336 37.9227 38.6213V41.8386C37.9227 42.2264 38.237 42.5406 38.6247 42.5406H41.4305C41.8182 42.5406 42.1325 42.2264 42.1325 41.8386V38.6213C42.1325 38.2336 41.8182 37.9193 41.4305 37.9193ZM40.7285 41.1356H39.3267V39.3233H40.7285V41.1356ZM57.3 37.9193H54.4942C54.1065 37.9193 53.7922 38.2336 53.7922 38.6213V41.8386C53.7922 42.2264 54.1065 42.5406 54.4942 42.5406H57.3C57.6878 42.5406 58.002 42.2264 58.002 41.8386V38.6213C58.002 38.2336 57.6878 37.9193 57.3 37.9193ZM56.598 41.1356H55.1962V39.3233H56.598V41.1356ZM64.3427 63.6298H61.3079V31.8821C61.3079 31.4944 60.9936 31.1801 60.6059 31.1801H55.841V28.7771C55.841 28.3894 55.5267 28.0751 55.139 28.0751H51.7683V24.7044C51.7683 24.3167 51.454 24.0024 51.0663 24.0024H44.8563C44.4686 24.0024 44.1543 24.3167 44.1543 24.7044V28.0751H40.7836C40.3959 28.0751 40.0816 28.3894 40.0816 28.7771V31.1801H35.3166C34.9289 31.1801 34.6146 31.4944 34.6146 31.8821V47.6156H23.7542C23.3664 47.6156 23.0522 47.9298 23.0522 48.3176V63.6298H19.702C19.3143 63.6298 19 63.9441 19 64.3318C19 64.7195 19.3143 65.0338 19.702 65.0338H23.7542H35.3188H60.607H64.3427C64.7304 65.0338 65.0447 64.7195 65.0447 64.3318C65.0447 63.9441 64.7304 63.6298 64.3427 63.6298ZM41.4867 29.4791H44.8574C45.2451 29.4791 45.5594 29.1648 45.5594 28.7771V25.4064H50.3654V28.7771C50.3654 29.1648 50.6796 29.4791 51.0674 29.4791H54.438V31.8821V34.2851H51.0674C50.6796 34.2851 50.3654 34.5994 50.3654 34.9871V38.3567H45.5594V34.9871C45.5594 34.5994 45.2451 34.2851 44.8574 34.2851H41.4867V31.8821V29.4791V29.4791ZM24.4562 49.0206H34.6168V63.6298H24.4562V49.0206ZM36.0197 63.6298V48.3186V32.5841H40.0827V34.9871C40.0827 35.3748 40.397 35.6891 40.7847 35.6891H44.1554V39.0587C44.1554 39.4464 44.4696 39.7607 44.8574 39.7607H51.0674C51.4551 39.7607 51.7694 39.4464 51.7694 39.0587V35.6891H55.14C55.5278 35.6891 55.842 35.3748 55.842 34.9871V32.5841H59.905V63.6298H36.0197Z" fill="white"/>
</svg>
