<svg id="elem-three-parks" width="40" height="40" viewBox="0 0 90 90" fill="none" xmlns="http://www.w3.org/2000/svg">
<circle cx="45" cy="45.0005" r="40" fill="#FF3030"/>
<circle cx="45" cy="45.0024" r="44" stroke="#FF3030" stroke-linecap="round" stroke-dasharray="2 4"/>
<path d="M60.6774 61.8412V56.0347H61.2581C61.4121 56.0347 61.5597 55.9735 61.6686 55.8646C61.7775 55.7557 61.8387 55.6081 61.8387 55.4541V53.1315C61.8387 52.9775 61.7775 52.8298 61.6686 52.7209C61.5597 52.612 61.4121 52.5508 61.2581 52.5508H47.3226V50.2282H49.6452C49.7216 50.2287 49.7973 50.214 49.8681 50.1851C49.9388 50.1563 50.0032 50.1137 50.0574 50.0599L52.2058 47.9057H53.129C53.283 47.9057 53.4307 47.8445 53.5396 47.7356C53.6485 47.6267 53.7097 47.479 53.7097 47.325V45.0024C53.7097 44.8484 53.6485 44.7008 53.5396 44.5919C53.4307 44.483 53.283 44.4218 53.129 44.4218H46.7419V42.0992H47.9032C47.9796 42.0997 48.0554 42.085 48.1261 42.0561C48.1969 42.0272 48.2612 41.9846 48.3155 41.9308L50.4639 39.7766H51.3871C51.5411 39.7766 51.6888 39.7155 51.7977 39.6066C51.9066 39.4977 51.9677 39.35 51.9677 39.196V36.8734C51.9677 36.7194 51.9066 36.5717 51.7977 36.4628C51.6888 36.3539 51.5411 36.2928 51.3871 36.2928H47.8394C47.881 36.102 47.9024 35.9074 47.9032 35.7121C47.9034 35.0428 47.6723 34.3941 47.249 33.8756C46.8258 33.3571 46.2364 33.0008 45.5806 32.867V31.9379C45.5806 30.937 45.9783 29.977 46.6861 29.2692C47.3939 28.5614 48.3539 28.1637 49.3548 28.1637C50.3558 28.1637 51.3158 28.5614 52.0236 29.2692C52.7314 29.977 53.129 30.937 53.129 31.9379V40.3573H54.2903V31.9379C54.2903 30.8372 53.9224 29.7681 53.245 28.9006C52.5676 28.033 51.6197 27.4168 50.5519 27.1498C49.484 26.8828 48.3576 26.9805 47.3517 27.4272C46.3457 27.874 45.518 28.6442 45 29.6153C44.482 28.6442 43.6543 27.874 42.6483 27.4272C41.6424 26.9805 40.516 26.8828 39.4481 27.1498C38.3803 27.4168 37.4324 28.033 36.755 28.9006C36.0776 29.7681 35.7097 30.8372 35.7097 31.9379V40.3573H36.871V31.9379C36.871 30.937 37.2686 29.977 37.9764 29.2692C38.6842 28.5614 39.6442 28.1637 40.6452 28.1637C41.6461 28.1637 42.6061 28.5614 43.3139 29.2692C44.0217 29.977 44.4194 30.937 44.4194 31.9379V32.867C43.7636 33.0008 43.1742 33.3571 42.751 33.8756C42.3277 34.3941 42.0966 35.0428 42.0968 35.7121C42.0976 35.9074 42.119 36.102 42.1606 36.2928H38.6129C38.4589 36.2928 38.3112 36.3539 38.2023 36.4628C38.0934 36.5717 38.0323 36.7194 38.0323 36.8734V39.196C38.0323 39.35 38.0934 39.4977 38.2023 39.6066C38.3112 39.7155 38.4589 39.7766 38.6129 39.7766H39.5361L41.6845 41.9308C41.7388 41.9846 41.8031 42.0272 41.8739 42.0561C41.9446 42.085 42.0204 42.0997 42.0968 42.0992H43.2581V44.4218H36.871C36.717 44.4218 36.5693 44.483 36.4604 44.5919C36.3515 44.7008 36.2903 44.8484 36.2903 45.0024V47.325C36.2903 47.479 36.3515 47.6267 36.4604 47.7356C36.5693 47.8445 36.717 47.9057 36.871 47.9057H37.7942L39.9426 50.0599C39.9968 50.1137 40.0612 50.1563 40.1319 50.1851C40.2027 50.214 40.2784 50.2287 40.3548 50.2282H42.6774V52.5508H28.7419C28.5879 52.5508 28.4402 52.612 28.3314 52.7209C28.2225 52.8298 28.1613 52.9775 28.1613 53.1315V55.4541C28.1613 55.6081 28.2225 55.7557 28.3314 55.8646C28.4402 55.9735 28.5879 56.0347 28.7419 56.0347H29.3226V61.8412H27V63.0024H63V61.8412H60.6774ZM43.2581 35.7121C43.2581 35.2501 43.4416 34.8071 43.7683 34.4804C44.0949 34.1537 44.538 33.9702 45 33.9702C45.462 33.9702 45.9051 34.1537 46.2317 34.4804C46.5584 34.8071 46.7419 35.2501 46.7419 35.7121C46.7378 35.9105 46.7005 36.1067 46.6316 36.2928H43.3684C43.2995 36.1067 43.2622 35.9105 43.2581 35.7121ZM39.1935 37.4541H50.8065V38.6153H39.1935V37.4541ZM41.1735 39.7766H48.8265L47.6652 40.9379H42.3348L41.1735 39.7766ZM44.4194 42.0992H45.5806V44.4218H44.4194V42.0992ZM37.4516 45.5831H52.5484V46.7444H37.4516V45.5831ZM39.4316 47.9057H50.5684L49.4071 49.067H40.5929L39.4316 47.9057ZM43.8387 50.2282H46.1613V52.5508H43.8387V50.2282ZM29.3226 53.7121H60.6774V54.8734H29.3226V53.7121ZM30.4839 56.0347H59.5161V61.8412H30.4839V56.0347Z" fill="white"/>
<path d="M54.2903 41.5186H53.129V42.6799H54.2903V41.5186Z" fill="white"/>
<path d="M36.871 41.5186H35.7097V43.8412H36.871V41.5186Z" fill="white"/>
</svg>
