<svg id="elem-house-culture" width="40" height="40" viewBox="0 0 90 90" fill="none" xmlns="http://www.w3.org/2000/svg">
<circle cx="45" cy="45.0024" r="40" fill="#FF3030"/>
<circle cx="45" cy="45.0024" r="44" stroke="#FF3030" stroke-linecap="round" stroke-dasharray="2 4"/>
<path d="M61.2273 38.2106C61.6539 38.2106 62 37.8702 62 37.4509V31.6374C62 31.2697 61.7327 30.9552 61.3648 30.8899L45.1375 28.015C45.0463 27.9983 44.9536 27.9983 44.8624 28.015L28.6352 30.8898C28.2673 30.9552 28 31.2712 28 31.6374V37.4509C28 37.8703 28.3462 38.2106 28.7727 38.2106H32.6363V53.4052H30.3182C29.8916 53.4052 29.5455 53.7456 29.5455 54.1649V56.4441H28.7727C28.3461 56.4441 28 56.7845 28 57.2038V60.2427C28 60.6621 28.3462 61.0024 28.7727 61.0024H61.2272C61.6538 61.0024 61.9999 60.662 61.9999 60.2427V57.2038C61.9999 56.7844 61.6537 56.4441 61.2272 56.4441H60.4545V54.1649C60.4545 53.7455 60.1083 53.4052 59.6818 53.4052H57.3636V38.2106H61.2273V38.2106ZM29.5455 32.2725L45 29.5345L60.4546 32.2725V36.6911H56.591H51.9546H47.3182H42.6819H38.0455H33.4091H29.5455V32.2725V32.2725ZM48.0909 53.4052V38.2106H51.1818V53.4052H48.0909V53.4052ZM38.8182 53.4052V38.2106H41.9091V53.4052H38.8182V53.4052ZM43.4546 38.2106H46.5454V53.4052H43.4546V38.2106ZM34.1818 38.2106H37.2727V53.4052H34.1818V38.2106V38.2106ZM60.4545 59.483H29.5455V57.9635H30.3182H59.6818H60.4545V59.483ZM58.9091 56.4441H31.0909V54.9246H33.4091H38.0455H42.6819H47.3182H51.9546H56.591H58.9092V56.4441H58.9091ZM55.8181 53.4052H52.7272V38.2106H55.8181V53.4052Z" fill="white"/>
</svg>
