<svg id="elem-bike-paths" width="40" height="40" viewBox="0 0 90 90" fill="none" xmlns="http://www.w3.org/2000/svg">
<circle cx="45" cy="45.0027" r="40" fill="#FF3030"/>
<circle cx="45" cy="45.0027" r="44" stroke="#FF3030" stroke-linecap="round" stroke-dasharray="2 4"/>
<path d="M57.935 55.478C54.4952 55.478 51.7024 52.7936 51.7024 49.4844C51.7024 47.7084 52.5089 46.119 53.7857 45.0214L55.3553 48.5217C55.6531 49.1823 55.9686 49.2379 56.0449 49.2418H56.06H57.2384C57.871 49.2418 57.6537 48.6229 57.5712 48.4299L55.5574 43.9441C56.2917 43.6532 57.0941 43.4899 57.9349 43.4899C61.3761 43.4899 64.1689 46.1739 64.1689 49.4839C64.169 52.7949 61.3761 55.478 57.935 55.478ZM51.4143 40.2757L42.6433 47.6853C42.6433 47.6866 42.6433 47.6866 42.6433 47.6866C41.612 48.5554 41.1101 47.6159 41.1025 47.6007L37.376 40.4857C37.0446 39.852 37.6648 39.7673 37.9419 39.76H50.5528C50.5528 39.76 51.4205 39.7524 51.5064 39.9408V39.9415C51.5621 40.0645 51.5717 40.1431 51.4143 40.2757ZM39.002 49.0797L37.1106 48.9283C37.0102 46.5454 35.795 44.4452 33.9496 43.0898L34.7128 41.8441C35.3732 40.7667 35.9483 41.8447 35.9483 41.8447C37.1952 44.1995 38.5159 46.6942 39.2859 48.1568C39.2867 48.1574 39.8037 49.1425 39.002 49.0797ZM31.6601 48.4959C31.6581 48.494 31.6581 48.494 31.6557 48.494C30.7223 48.4193 31.3157 47.3978 31.3497 47.3422L32.9139 44.7837C34.1807 45.7431 35.0501 47.1623 35.2484 48.7809L31.6601 48.4959ZM29.0636 55.4866C25.6221 55.4866 22.83 52.8016 22.83 49.4916C22.83 46.1811 25.6214 43.498 29.0636 43.498C29.8189 43.498 30.539 43.6342 31.2094 43.8702L28.2709 48.6717C28.187 48.8079 28.1533 48.9547 28.1419 49.1002C28.1399 49.1147 28.1319 49.124 28.1306 49.1372C28.1258 49.1988 28.1446 49.2523 28.1519 49.3118C28.1581 49.3488 28.1546 49.3819 28.1649 49.4189C28.2574 49.7958 28.5812 50.0946 29.0051 50.129L35.1823 50.6209C34.634 53.3887 32.1042 55.4866 29.0636 55.4866ZM57.935 41.487C56.8013 41.487 55.7204 41.7144 54.7394 42.1234L51.3648 34.6034C51.2796 34.412 51.1283 34.2765 50.9571 34.173C50.8079 34.0735 50.6346 34.0031 50.4373 34.0031H44.1772C43.6533 34.0031 43.2297 34.4107 43.2297 34.9135C43.2297 35.416 43.6533 35.8236 44.1772 35.8236H48.979C49.2107 35.8352 49.6975 35.9175 49.9065 36.3813L50.2861 37.2257L50.3583 37.384C50.4277 37.5811 50.4552 37.8912 49.9327 37.8912H36.7658C36.1631 37.8912 35.8784 37.5861 35.7568 37.3956L35.6795 37.2462V37.2439L35.2914 36.5053C35.2914 36.5053 35.2914 36.5053 35.2914 36.5047L35.2873 36.4981L35.2168 36.3618L35.2092 36.3612L35.0507 36.0861C35.0163 36.0002 35.0287 35.8587 35.5083 35.8587H37.3375C37.3375 35.8587 38.4121 35.9446 38.4424 34.9969C38.4575 34.5086 38.0999 34.0064 37.6218 34.0064C37.1446 34.0064 31.1853 34.0064 31.1853 34.0064C31.1853 34.0064 30.1553 33.892 30.0962 34.9327C30.0962 35.3985 30.4984 35.8587 31.0663 35.8587C31.274 35.8587 31.5586 35.8574 31.8333 35.8541C32.1935 35.8637 32.8103 35.9368 33.0131 36.313L33.0955 36.4615C33.2974 36.8433 33.6236 37.4575 34.0193 38.2027C34.0481 38.2556 34.0777 38.3145 34.108 38.3694C34.1832 38.5631 34.241 38.9151 33.9615 39.3727L32.2709 42.1345C31.288 41.7242 30.2055 41.4935 29.0641 41.4935C24.6117 41.4933 21 44.9645 21 49.247C21 53.5301 24.6117 57.0027 29.0642 57.0027C32.9801 57.0027 36.2411 54.3183 36.9734 50.7611L41.0317 51.0843C41.196 51.0982 41.3493 51.0579 41.491 50.9984C41.6697 50.9694 41.8471 50.9124 41.9922 50.7875L51.8248 42.4837C51.9595 42.3726 52.4395 42.0245 52.6347 42.4565L52.9483 43.1567C51.0781 44.577 49.8715 46.7714 49.8715 49.2416C49.8715 53.5247 53.4818 56.996 57.9344 56.996C62.3883 56.996 66 53.5248 66 49.2416C66.0006 44.9596 62.3889 41.487 57.935 41.487Z" fill="white"/>
</svg>
