<svg id="elem-new-schools" width="40" height="40" viewBox="0 0 90 90" fill="none" xmlns="http://www.w3.org/2000/svg">
<circle cx="45" cy="45.0024" r="40" fill="#FF3030"/>
<circle cx="45" cy="45.0024" r="44" stroke="#FF3030" stroke-linecap="round" stroke-dasharray="2 4"/>
<path fill-rule="evenodd" clip-rule="evenodd" d="M45.7092 26.7137C45.3329 26.2723 44.6633 26.2744 44.292 26.7123L38.5671 33.4478L38.567 33.4479L35.138 37.4815H36.9891L44.4615 28.6909C44.5909 28.5386 44.7795 28.451 44.9779 28.451C44.9813 28.451 44.9847 28.451 44.9881 28.4511C44.9915 28.451 44.9949 28.451 44.9983 28.451C45.1967 28.451 45.3852 28.5386 45.5147 28.6909L52.9876 37.4815H54.8586L51.4296 33.4479C51.4198 33.4364 51.4105 33.4247 51.4016 33.4128L45.7092 26.7137ZM52.2604 32.3069L46.7407 25.8112C45.8222 24.7337 44.1748 24.7316 43.2581 25.8125L37.7382 32.3069H26.6768C26.4918 32.3069 26.3147 32.3831 26.1863 32.5181L19.1909 39.8674C19.0684 39.9961 19 40.1679 19 40.3467V59.312C19 59.6933 19.3051 60.0024 19.6815 60.0024H52.9886C52.992 60.0024 52.9954 60.0024 52.9988 60.0024C53.0022 60.0024 53.0056 60.0024 53.009 60.0024H70.3185C70.6949 60.0024 71 59.6933 71 59.312V40.3467C71 40.1678 70.9315 39.996 70.809 39.8673L63.8102 32.518C63.6818 32.3831 63.5047 32.3069 63.3198 32.3069H52.2604ZM56.8612 37.7213L53.4337 33.6877H63.0303L68.7141 39.6563H53.6905V38.8623H56.3449C56.6113 38.8623 56.8532 38.705 56.9643 38.4597C57.0754 38.2144 57.0351 37.926 56.8613 37.7215L56.8612 37.7213ZM36.2856 39.6563V38.8623H33.6517C33.3853 38.8623 33.1433 38.705 33.0323 38.4596C32.9212 38.2143 32.9615 37.9259 33.1354 37.7213L36.5644 33.6877H26.9664L21.2853 39.6563H36.2856ZM20.363 41.0371H36.2856V58.6216H20.363V41.0371ZM37.6724 58.6216H41.8328V49.6222C41.8328 49.2409 42.1379 48.9318 42.5143 48.9318H47.4789C47.8552 48.9318 48.1603 49.2409 48.1603 49.6222V58.6216H52.3071V38.8217L44.9881 30.2114L37.8378 38.6224L37.669 38.8214V40.2772C37.6713 40.3 37.6724 40.3232 37.6724 40.3467V58.6216ZM46.7974 58.6216V50.3126H43.1958V58.6216H46.7974ZM53.6905 58.6216V41.0371H69.6371V58.6216H53.6905ZM44.9779 36.8532C42.9059 36.8532 41.2263 38.5548 41.2263 40.6539C41.2263 42.7529 42.9059 44.4546 44.9779 44.4546C47.0498 44.4546 48.7294 42.7529 48.7294 40.6539C48.7294 38.5548 47.0498 36.8532 44.9779 36.8532ZM39.8634 40.6539C39.8634 37.7922 42.1532 35.4724 44.9779 35.4724C47.8025 35.4724 50.0923 37.7922 50.0923 40.6539C50.0923 43.5155 47.8025 45.8354 44.9779 45.8354C42.1532 45.8354 39.8634 43.5155 39.8634 40.6539ZM44.9779 37.8405C45.3542 37.8405 45.6593 38.1496 45.6593 38.5309V40.4088H46.2692C46.6456 40.4088 46.9507 40.7179 46.9507 41.0992C46.9507 41.4805 46.6456 41.7896 46.2692 41.7896H44.9779C44.6015 41.7896 44.2964 41.4805 44.2964 41.0992V38.5309C44.2964 38.1496 44.6015 37.8405 44.9779 37.8405ZM22.2881 43.9057C22.2881 43.5244 22.5932 43.2153 22.9696 43.2153H26.6019C26.9782 43.2153 27.2833 43.5244 27.2833 43.9057V48.1689C27.2833 48.5502 26.9782 48.8593 26.6019 48.8593H22.9696C22.5932 48.8593 22.2881 48.5502 22.2881 48.1689V43.9057ZM23.6511 44.5961V47.4785H25.9204V44.5961H23.6511ZM28.7451 43.9057C28.7451 43.5244 29.0502 43.2153 29.4266 43.2153H33.0588C33.4352 43.2153 33.7403 43.5244 33.7403 43.9057V48.1689C33.7403 48.5502 33.4352 48.8593 33.0588 48.8593H29.4266C29.0502 48.8593 28.7451 48.5502 28.7451 48.1689V43.9057ZM30.1081 44.5961V47.4785H32.3774V44.5961H30.1081ZM56.2154 43.9057C56.2154 43.5244 56.5205 43.2153 56.8969 43.2153H60.5291C60.9055 43.2153 61.2106 43.5244 61.2106 43.9057V48.1689C61.2106 48.5502 60.9055 48.8593 60.5291 48.8593H56.8969C56.5205 48.8593 56.2154 48.5502 56.2154 48.1689V43.9057ZM57.5783 44.5961V47.4785H59.8477V44.5961H57.5783ZM62.6724 43.9057C62.6724 43.5244 62.9775 43.2153 63.3538 43.2153H66.9861C67.3625 43.2153 67.6676 43.5244 67.6676 43.9057V48.1689C67.6676 48.5502 67.3625 48.8593 66.9861 48.8593H63.3538C62.9775 48.8593 62.6724 48.5502 62.6724 48.1689V43.9057ZM64.0353 44.5961V47.4785H66.3046V44.5961H64.0353ZM22.2881 51.7314C22.2881 51.3501 22.5932 51.041 22.9696 51.041H26.6019C26.9782 51.041 27.2833 51.3501 27.2833 51.7314V55.9946C27.2833 56.3759 26.9782 56.6851 26.6019 56.6851H22.9696C22.5932 56.6851 22.2881 56.3759 22.2881 55.9946V51.7314ZM23.6511 52.4218V55.3042H25.9204V52.4218H23.6511ZM28.7451 51.7314C28.7451 51.3501 29.0502 51.041 29.4266 51.041H33.0588C33.4352 51.041 33.7403 51.3501 33.7403 51.7314V55.9946C33.7403 56.3759 33.4352 56.6851 33.0588 56.6851H29.4266C29.0502 56.6851 28.7451 56.3759 28.7451 55.9946V51.7314ZM30.1081 52.4218V55.3042H32.3774V52.4218H30.1081ZM56.2154 51.7314C56.2154 51.3501 56.5205 51.041 56.8969 51.041H60.5291C60.9055 51.041 61.2106 51.3501 61.2106 51.7314V55.9946C61.2106 56.3759 60.9055 56.6851 60.5291 56.6851H56.8969C56.5205 56.6851 56.2154 56.3759 56.2154 55.9946V51.7314ZM57.5783 52.4218V55.3042H59.8477V52.4218H57.5783ZM62.6724 51.7314C62.6724 51.3501 62.9775 51.041 63.3538 51.041H66.9861C67.3625 51.041 67.6676 51.3501 67.6676 51.7314V55.9946C67.6676 56.3759 67.3625 56.6851 66.9861 56.6851H63.3538C62.9775 56.6851 62.6724 56.3759 62.6724 55.9946V51.7314ZM64.0353 52.4218V55.3042H66.3046V52.4218H64.0353Z" fill="white"/>
</svg>
